<mxfile host="app.diagrams.net" modified="2020-10-29T07:54:29.169Z" agent="5.0 (Macintosh; Intel Mac OS X 10_13_6) AppleWebKit/537.36 (KHTML, like Gecko) Chrome/85.0.4183.121 Safari/537.36" etag="RbnCh_HjUJDHzGbavTEn" version="13.8.5" type="github">
  <diagram id="07fea595-8f29-1299-0266-81d95cde20df" name="Page-1">
    <mxGraphModel dx="1426" dy="713" grid="1" gridSize="10" guides="1" tooltips="1" connect="1" arrows="1" fold="1" page="1" pageScale="1" pageWidth="1169" pageHeight="827" background="#ffffff" math="0" shadow="0">
      <root>
        <mxCell id="0" />
        <mxCell id="1" parent="0" />
        <mxCell id="_mXgGyObjbw_ubh1zkck-43" value="" style="rounded=0;whiteSpace=wrap;html=1;shadow=1;dashed=1;fillColor=none;" parent="1" vertex="1">
          <mxGeometry x="210" y="420" width="660" height="70" as="geometry" />
        </mxCell>
        <mxCell id="_mXgGyObjbw_ubh1zkck-33" value="" style="rounded=0;whiteSpace=wrap;html=1;dashed=1;fillColor=none;" parent="1" vertex="1">
          <mxGeometry x="210" y="250" width="660" height="160" as="geometry" />
        </mxCell>
        <mxCell id="_mXgGyObjbw_ubh1zkck-7" value="" style="rounded=0;whiteSpace=wrap;html=1;dashed=1;fillColor=none;" parent="1" vertex="1">
          <mxGeometry x="210" y="160" width="660" height="70" as="geometry" />
        </mxCell>
        <mxCell id="_mXgGyObjbw_ubh1zkck-1" value="&lt;font style=&quot;font-size: 15px&quot;&gt;九色鹿底座&lt;/font&gt;" style="rounded=0;whiteSpace=wrap;html=1;fillColor=#f5f5f5;strokeColor=#666666;fontColor=#333333;" parent="1" vertex="1">
          <mxGeometry x="320" y="360" width="520" height="40" as="geometry" />
        </mxCell>
        <mxCell id="_mXgGyObjbw_ubh1zkck-2" value="客服管理端" style="rounded=0;whiteSpace=wrap;html=1;shadow=0;fillColor=#E6D0DE;" parent="1" vertex="1">
          <mxGeometry x="320" y="180" width="80" height="30" as="geometry" />
        </mxCell>
        <mxCell id="_mXgGyObjbw_ubh1zkck-3" value="客服运营后台" style="rounded=0;whiteSpace=wrap;html=1;shadow=0;fillColor=#E6D0DE;" parent="1" vertex="1">
          <mxGeometry x="430" y="180" width="80" height="30" as="geometry" />
        </mxCell>
        <mxCell id="_mXgGyObjbw_ubh1zkck-5" value="客服工作台" style="rounded=0;whiteSpace=wrap;html=1;shadow=0;fillColor=#E6D0DE;" parent="1" vertex="1">
          <mxGeometry x="540" y="180" width="80" height="30" as="geometry" />
        </mxCell>
        <mxCell id="_mXgGyObjbw_ubh1zkck-6" value="访客应用" style="rounded=0;whiteSpace=wrap;html=1;shadow=0;fillColor=#E6D0DE;" parent="1" vertex="1">
          <mxGeometry x="650" y="180" width="80" height="30" as="geometry" />
        </mxCell>
        <mxCell id="_mXgGyObjbw_ubh1zkck-8" value="&lt;font style=&quot;font-size: 15px&quot;&gt;JDStack&lt;/font&gt;" style="rounded=0;whiteSpace=wrap;html=1;fillColor=#9AC7BF;" parent="1" vertex="1">
          <mxGeometry x="320" y="435" width="250" height="40" as="geometry" />
        </mxCell>
        <mxCell id="_mXgGyObjbw_ubh1zkck-11" value="&lt;font style=&quot;font-size: 15px&quot;&gt;商家应用&lt;/font&gt;" style="text;html=1;strokeColor=none;fillColor=none;align=center;verticalAlign=middle;whiteSpace=wrap;rounded=0;dashed=1;" parent="1" vertex="1">
          <mxGeometry x="207.5" y="195" width="90" as="geometry" />
        </mxCell>
        <mxCell id="_mXgGyObjbw_ubh1zkck-12" value="&lt;font style=&quot;font-size: 15px&quot;&gt;IaaS&lt;/font&gt;" style="text;html=1;strokeColor=none;fillColor=none;align=center;verticalAlign=middle;whiteSpace=wrap;rounded=0;dashed=1;" parent="1" vertex="1">
          <mxGeometry x="222.5" y="440" width="40" height="20" as="geometry" />
        </mxCell>
        <mxCell id="_mXgGyObjbw_ubh1zkck-13" value="&lt;font style=&quot;font-size: 15px&quot;&gt;PaaS&lt;/font&gt;" style="text;html=1;strokeColor=none;fillColor=none;align=center;verticalAlign=middle;whiteSpace=wrap;rounded=0;dashed=1;" parent="1" vertex="1">
          <mxGeometry x="200" y="320" width="85" height="20" as="geometry" />
        </mxCell>
        <mxCell id="_mXgGyObjbw_ubh1zkck-16" value="&lt;font style=&quot;font-size: 15px&quot;&gt;在线客服&lt;/font&gt;" style="rounded=0;whiteSpace=wrap;html=1;fillColor=#f5f5f5;strokeColor=#666666;fontColor=#333333;" parent="1" vertex="1">
          <mxGeometry x="320" y="310" width="120" height="40" as="geometry" />
        </mxCell>
        <mxCell id="_mXgGyObjbw_ubh1zkck-35" value="&lt;font style=&quot;font-size: 15px&quot;&gt;呼叫中心&lt;/font&gt;" style="rounded=0;whiteSpace=wrap;html=1;fillColor=#f5f5f5;strokeColor=#666666;fontColor=#333333;" parent="1" vertex="1">
          <mxGeometry x="465" y="310" width="120" height="40" as="geometry" />
        </mxCell>
        <mxCell id="_mXgGyObjbw_ubh1zkck-36" value="&lt;font style=&quot;font-size: 15px&quot;&gt;智能机器人&lt;/font&gt;" style="rounded=0;whiteSpace=wrap;html=1;fillColor=#f5f5f5;strokeColor=#666666;fontColor=#333333;" parent="1" vertex="1">
          <mxGeometry x="600" y="310" width="130" height="40" as="geometry" />
        </mxCell>
        <mxCell id="_mXgGyObjbw_ubh1zkck-39" value="..." style="rounded=0;whiteSpace=wrap;html=1;shadow=0;fillColor=#E6D0DE;" parent="1" vertex="1">
          <mxGeometry x="760" y="180" width="80" height="30" as="geometry" />
        </mxCell>
        <mxCell id="_mXgGyObjbw_ubh1zkck-40" value="&lt;font style=&quot;font-size: 15px&quot;&gt;九色鹿网关&lt;/font&gt;" style="rounded=0;whiteSpace=wrap;html=1;fillColor=#FFE599;" parent="1" vertex="1">
          <mxGeometry x="320" y="260" width="520" height="40" as="geometry" />
        </mxCell>
        <mxCell id="_mXgGyObjbw_ubh1zkck-41" value="&lt;font style=&quot;font-size: 15px&quot;&gt;工单&lt;/font&gt;" style="rounded=0;whiteSpace=wrap;html=1;fillColor=#f5f5f5;strokeColor=#666666;fontColor=#333333;" parent="1" vertex="1">
          <mxGeometry x="740" y="310" width="100" height="40" as="geometry" />
        </mxCell>
        <mxCell id="u6dY8Qh8OFB8ui-Qbncq-2" value="&lt;font style=&quot;font-size: 15px&quot;&gt;其他私有云基础设施&lt;/font&gt;" style="rounded=0;whiteSpace=wrap;html=1;fillColor=#9AC7BF;" vertex="1" parent="1">
          <mxGeometry x="590" y="435" width="250" height="40" as="geometry" />
        </mxCell>
      </root>
    </mxGraphModel>
  </diagram>
</mxfile>
